<svg xmlns="http://www.w3.org/2000/svg" viewBox="0 0 600 380" role="img" aria-labelledby="title desc">
<title id="title">Curl Flat play diagram</title>
<desc id="desc">Shotgun, Quick Pass concept schematic.</desc>
<defs>
 <marker id="arrowWhite" markerWidth="8" markerHeight="8" refX="7" refY="4" orient="auto"><path d="M0,0 L8,4 L0,8 z" fill="#fff"/></marker>
 <marker id="arrowRed" markerWidth="8" markerHeight="8" refX="7" refY="4" orient="auto"><path d="M0,0 L8,4 L0,8 z" fill="#cc0033"/></marker>
 <marker id="arrowGold" markerWidth="8" markerHeight="8" refX="7" refY="4" orient="auto"><path d="M0,0 L8,4 L0,8 z" fill="#f5c242"/></marker>
 <linearGradient id="bg" x1="0" x2="1"><stop offset="0" stop-color="#101014"/><stop offset="1" stop-color="#1b1b22"/></linearGradient>
</defs>
<rect width="600" height="380" rx="24" fill="url(#bg)"/>
<path d="M40 90 H560 M40 155 H560 M40 220 H560 M40 285 H560" stroke="#2d2d36" stroke-width="2"/>
<path d="M300 75 V330" stroke="#282831" stroke-width="2" stroke-dasharray="8 10"/>
<text x="28" y="35" fill="#cc0033" font-family="Arial,sans-serif" font-weight="900" font-size="20">RUTGERS</text>
<text x="570" y="35" text-anchor="end" fill="#fff" font-family="Arial,sans-serif" font-weight="900" font-size="18">Curl Flat</text>
<text x="570" y="57" text-anchor="end" fill="#aaa" font-family="Arial,sans-serif" font-size="12">Shotgun · Quick Pass</text>
<path d="M110 235 L110 145 Q110 120 85 130" fill="none" stroke="#fff" stroke-width="5" stroke-linecap="round" marker-end="url(#arrowWhite)"/>
<path d="M185 235 L185 180 Q185 155 160 165" fill="none" stroke="#fff" stroke-width="5" stroke-linecap="round" marker-end="url(#arrowWhite)"/>
<path d="M415 235 L415 180 Q415 155 440 165" fill="none" stroke="#fff" stroke-width="5" stroke-linecap="round" marker-end="url(#arrowWhite)"/>
<path d="M490 235 L490 145 Q490 120 515 130" fill="none" stroke="#fff" stroke-width="5" stroke-linecap="round" marker-end="url(#arrowWhite)"/>


<g><circle cx="240" cy="235" r="12" fill="#0b0b0e" stroke="#fff" stroke-width="3"/><text x="240" y="239" text-anchor="middle" font-size="9" font-weight="800" fill="#fff">OL</text></g>
<g><circle cx="270" cy="235" r="12" fill="#0b0b0e" stroke="#fff" stroke-width="3"/><text x="270" y="239" text-anchor="middle" font-size="9" font-weight="800" fill="#fff">OL</text></g>
<g><circle cx="300" cy="235" r="12" fill="#0b0b0e" stroke="#fff" stroke-width="3"/><text x="300" y="239" text-anchor="middle" font-size="9" font-weight="800" fill="#fff">C</text></g>
<g><circle cx="330" cy="235" r="12" fill="#0b0b0e" stroke="#fff" stroke-width="3"/><text x="330" y="239" text-anchor="middle" font-size="9" font-weight="800" fill="#fff">OL</text></g>
<g><circle cx="360" cy="235" r="12" fill="#0b0b0e" stroke="#fff" stroke-width="3"/><text x="360" y="239" text-anchor="middle" font-size="9" font-weight="800" fill="#fff">OL</text></g>
<g><circle cx="300" cy="275" r="12" fill="#0b0b0e" stroke="#fff" stroke-width="3"/><text x="300" y="279" text-anchor="middle" font-size="9" font-weight="800" fill="#fff">QB</text></g>
<g><circle cx="300" cy="315" r="12" fill="#0b0b0e" stroke="#fff" stroke-width="3"/><text x="300" y="319" text-anchor="middle" font-size="9" font-weight="800" fill="#fff">HB</text></g>
<g><circle cx="105" cy="235" r="12" fill="#0b0b0e" stroke="#fff" stroke-width="3"/><text x="105" y="239" text-anchor="middle" font-size="9" font-weight="800" fill="#fff">X</text></g>
<g><circle cx="180" cy="235" r="12" fill="#0b0b0e" stroke="#fff" stroke-width="3"/><text x="180" y="239" text-anchor="middle" font-size="9" font-weight="800" fill="#fff">H</text></g>
<g><circle cx="420" cy="235" r="12" fill="#0b0b0e" stroke="#fff" stroke-width="3"/><text x="420" y="239" text-anchor="middle" font-size="9" font-weight="800" fill="#fff">Y</text></g>
<g><circle cx="495" cy="235" r="12" fill="#0b0b0e" stroke="#fff" stroke-width="3"/><text x="495" y="239" text-anchor="middle" font-size="9" font-weight="800" fill="#fff">Z</text></g>
<text x="28" y="355" fill="#9b9ba5" font-family="Arial,sans-serif" font-size="11">Concept schematic · matched to play family/name</text>
<g transform="translate(500,330)"><rect width="72" height="24" rx="12" fill="#2a2023"/><text x="36" y="16" text-anchor="middle" fill="#ffb3c5" font-size="10" font-weight="700">SCHEMATIC</text></g>
</svg>