<svg xmlns="http://www.w3.org/2000/svg" viewBox="0 0 420 560" role="img" aria-labelledby="title desc">
  <title id="title">G. Casas fictional portrait</title>
  <desc id="desc">Fictional waist-up BOILERMAKERS player portrait bound to pur-sam-g-casas</desc>
  <defs>
    <radialGradient id="bg" cx="50%" cy="28%" r="78%"><stop offset="0" stop-color="#24242a"/><stop offset="0.55" stop-color="#0d0d10"/><stop offset="1" stop-color="#020203"/></radialGradient>
    <linearGradient id="jersey" x1="0" x2="1" y1="0" y2="1"><stop stop-color="#ceb888"/><stop offset="0.58" stop-color="#1f1f1f"/><stop offset="1" stop-color="#111"/></linearGradient>
    <filter id="shadow" x="-20%" y="-20%" width="140%" height="150%"><feDropShadow dx="0" dy="18" stdDeviation="18" flood-color="#000" flood-opacity="0.6"/></filter>
  </defs>
  <rect width="420" height="560" fill="url(#bg)"/>
  <circle cx="318" cy="90" r="80" fill="#ceb888" opacity="0.18"/>
  <circle cx="88" cy="158" r="62" fill="#ceb888" opacity="0.12"/>
  <g filter="url(#shadow)">
    <path d="M110 520c8-100 42-167 100-167s92 67 100 167z" fill="url(#jersey)"/>
    <path d="M116 520h188l-26-128c-31 22-105 22-136 0z" fill="url(#jersey)"/>
    <path d="M146 408c41 28 88 28 128 0l-20-30c-27 20-62 20-88 0z" fill="#f3f3f3" opacity="0.9"/>
    <path d="M169 352h82v47c-20 18-61 18-82 0z" fill="#7a4b36"/>
    <ellipse cx="210" cy="253" rx="82" ry="102" fill="#7a4b36"/>
    <path d="M133 241c10-68 49-111 102-104 43 6 70 39 78 96-31-26-80-31-132-16-22 6-37 14-48 24z" fill="#151318"/>
    <ellipse cx="128" cy="271" rx="15" ry="25" fill="#7a4b36"/>
    <ellipse cx="292" cy="271" rx="15" ry="25" fill="#7a4b36"/>
    <path d="M173 278c11 9 24 9 35 0" stroke="#1d1715" stroke-width="6" stroke-linecap="round" fill="none" opacity="0.7"/>
    <path d="M219 278c11 9 24 9 35 0" stroke="#1d1715" stroke-width="6" stroke-linecap="round" fill="none" opacity="0.7"/>
    <path d="M199 316c13 8 26 8 39 0" stroke="#2b1b17" stroke-width="6" stroke-linecap="round" fill="none"/>
    <path d="M210 279l-10 34h25" stroke="#51372d" stroke-width="5" stroke-linecap="round" stroke-linejoin="round" fill="none" opacity="0.65"/>
    <text x="210" y="484" text-anchor="middle" font-family="Arial Black,Arial,sans-serif" font-size="82" fill="#fff" opacity="0.94">GC</text>
    <text x="210" y="532" text-anchor="middle" font-family="Arial, sans-serif" font-size="20" font-weight="800" letter-spacing="2" fill="#fff">SAM</text>
  </g>
  <text x="24" y="42" font-family="Arial, sans-serif" font-size="17" font-weight="900" fill="#ceb888">BOILERMAKERS</text>
  <text x="24" y="66" font-family="Arial, sans-serif" font-size="13" font-weight="700" fill="#d6d6d6">FICTIONAL PORTRAIT</text>
</svg>
