<svg xmlns="http://www.w3.org/2000/svg" viewBox="0 0 512 512" role="img" aria-label="Coordinator OS app icon">
  <defs>
    <linearGradient id="bg" x1="0" y1="0" x2="1" y2="1">
      <stop offset="0" stop-color="#cc0033"/>
      <stop offset="0.52" stop-color="#7f001f"/>
      <stop offset="1" stop-color="#08080a"/>
    </linearGradient>
    <linearGradient id="shine" x1="0" y1="0" x2="1" y2="0">
      <stop offset="0" stop-color="#fff" stop-opacity=".55"/>
      <stop offset=".35" stop-color="#fff" stop-opacity=".12"/>
      <stop offset="1" stop-color="#fff" stop-opacity="0"/>
    </linearGradient>
  </defs>
  <rect width="512" height="512" rx="108" fill="url(#bg)"/>
  <rect x="24" y="24" width="464" height="464" rx="88" fill="none" stroke="#ffffff" stroke-opacity=".28" stroke-width="8"/>
  <path d="M88 118h160c74 0 118 34 118 91 0 38-22 66-62 80l86 105h-94l-76-94h-47v94H88V118Zm85 62v60h67c28 0 42-11 42-30 0-20-14-30-42-30h-67Z" fill="#fff"/>
  <path d="M86 118h160c74 0 118 34 118 91 0 38-22 66-62 80l86 105h-94l-76-94h-47v94H86V118Zm85 62v60h67c28 0 42-11 42-30 0-20-14-30-42-30h-67Z" fill="#cc0033"/>
  <path d="M64 74h384v104H64z" fill="url(#shine)" opacity=".45"/>
</svg>
